<svg width="32" height="32" viewBox="0 0 32 32" fill="none" xmlns="http://www.w3.org/2000/svg">
<g clip-path="url(#clip0_209_10929)">
<path fill-rule="evenodd" clip-rule="evenodd" d="M15.9978 11.9688C17.5916 11.9688 18.8814 13.2494 18.8816 14.8272V18.4287L21.8923 16.3379C23.196 15.4346 24.9925 15.7485 25.906 17.041H25.9099C26.821 18.3336 26.5046 20.1138 25.2009 21.0196L17.6462 26.2656C17.6415 26.2704 17.6334 26.2726 17.6286 26.2774C17.6452 26.2656 17.66 26.2539 17.6765 26.2422C17.6504 26.261 17.6239 26.28 17.5954 26.2988C17.5504 26.3294 17.5028 26.3556 17.4577 26.3838C17.4553 26.3839 17.4503 26.3877 17.448 26.3877C17.4124 26.4065 17.3771 26.4284 17.3415 26.4473C17.2988 26.4685 17.2558 26.4896 17.2107 26.5108C17.1656 26.532 17.12 26.5505 17.0749 26.5694C17.0369 26.5835 16.9987 26.5982 16.9607 26.6123C16.9083 26.6312 16.8558 26.6499 16.8034 26.6641C16.775 26.6711 16.7489 26.6785 16.7204 26.6856C16.711 26.6879 16.7015 26.6901 16.6921 26.6924C16.6398 26.7042 16.5867 26.7181 16.532 26.7276C16.5107 26.7299 16.4917 26.735 16.4704 26.7373C16.4491 26.7397 16.4274 26.7447 16.406 26.7471C16.3585 26.7541 16.3109 26.7609 16.2634 26.7656C16.2398 26.768 16.2186 26.7705 16.195 26.7705C16.1619 26.7729 16.1306 26.7754 16.0974 26.7754C16.0641 26.7778 16.0281 26.7774 15.9949 26.7774C15.9593 26.7774 15.9259 26.7754 15.8904 26.7754C15.8571 26.7754 15.8259 26.7705 15.7927 26.7705C15.7689 26.7682 15.7472 26.7656 15.7234 26.7656C15.6759 26.7609 15.6283 26.7542 15.5808 26.7471C15.5594 26.7447 15.5377 26.742 15.5163 26.7373C15.495 26.735 15.4761 26.7323 15.4548 26.7276C15.4026 26.7181 15.3479 26.7065 15.2956 26.6924C15.2861 26.69 15.2759 26.6879 15.2663 26.6856C15.2379 26.6785 15.2117 26.6711 15.1833 26.6641C15.1287 26.6476 15.0784 26.6312 15.0261 26.6123C14.9882 26.5983 14.9507 26.5834 14.9128 26.5694C14.8677 26.5505 14.8222 26.5319 14.7771 26.5108C14.7344 26.4919 14.6889 26.4708 14.6462 26.4473C14.6105 26.4284 14.5745 26.4089 14.5388 26.3877C14.5364 26.3876 14.5314 26.3838 14.529 26.3838C14.4838 26.3579 14.4385 26.3295 14.3933 26.2988C14.3673 26.2801 14.3392 26.261 14.3132 26.2422C14.3296 26.2539 14.3436 26.2657 14.3601 26.2774C14.3552 26.2726 14.3435 26.2656 14.3435 26.2656L6.78782 21.0196C5.48222 20.1162 5.16578 18.3334 6.07884 17.041C6.98998 15.7461 8.78884 15.4322 10.0925 16.3379L13.1111 18.4346V23.9473C13.1039 23.0393 13.5323 22.1425 14.3386 21.5811L15.9577 20.4551L13.115 18.4834V14.8272C13.1151 13.2472 14.4042 11.969 15.9978 11.9688ZM13.6277 25.5645C13.6418 25.5832 13.6584 25.6024 13.6726 25.6211C13.6537 25.5977 13.6345 25.5742 13.6179 25.5508C13.6221 25.5549 13.6267 25.5626 13.6277 25.5645ZM18.3044 25.6211C18.3187 25.6023 18.3361 25.5833 18.3503 25.5645C18.3547 25.5599 18.3568 25.5553 18.3591 25.5508C18.3402 25.5743 18.321 25.5976 18.3044 25.6211ZM16.031 20.46L17.6462 21.5811C18.4525 22.1425 18.8809 23.0393 18.8738 23.9473V18.4883L16.031 20.46ZM0.41575 13.1553C1.14606 12.1222 2.58569 11.8698 3.62766 12.5938C4.66965 13.3179 4.92441 14.7452 4.19407 15.7783C3.46374 16.8114 2.02414 17.0639 0.982156 16.3399C-0.0597853 15.6158 -0.314481 14.1884 0.41575 13.1553ZM28.3708 12.5938C29.4152 11.8697 30.8524 12.1222 31.5827 13.1553C32.313 14.1908 32.0583 15.6158 31.0163 16.3399C29.972 17.0638 28.5347 16.8114 27.8044 15.7783C27.0742 14.7429 27.3289 13.3179 28.3708 12.5938ZM15.9909 5.11135C17.2641 5.10606 18.3001 6.12545 18.3054 7.38772C18.3106 8.64982 17.2834 9.67724 16.0105 9.68264C14.7374 9.68793 13.7004 8.66854 13.695 7.40627C13.6899 6.14418 14.718 5.11664 15.9909 5.11135Z" fill="url(#paint0_linear_209_10929)"/>
</g>
<defs>
<linearGradient id="paint0_linear_209_10929" x1="0.385626" y1="13.8098" x2="26.0269" y2="20.0229" gradientUnits="userSpaceOnUse">
<stop stop-color="#0091FF"/>
<stop offset="0.682692" stop-color="#0055FF"/>
<stop offset="1" stop-color="#004DFF"/>
</linearGradient>
<clipPath id="clip0_209_10929">
<rect width="32" height="32" fill="white"/>
</clipPath>
</defs>
</svg>
