<svg width="16" height="16" viewBox="0 0 16 16" fill="none" xmlns="http://www.w3.org/2000/svg">
<g clip-path="url(#clip0_275_3623)">
<path fill-rule="evenodd" clip-rule="evenodd" d="M7.99916 5.98438C8.79598 5.98438 9.44133 6.6243 9.44155 7.41309V9.21388L10.9464 8.16895C11.5983 7.71741 12.4965 7.87429 12.9533 8.52052H12.9552C13.4108 9.16677 13.2525 10.0569 12.6007 10.5098L8.82338 13.1328C8.821 13.1352 8.81697 13.1363 8.81459 13.1387C8.82282 13.1329 8.82984 13.1269 8.83803 13.1211C8.82505 13.1305 8.81215 13.1401 8.79799 13.1494C8.77541 13.1647 8.75124 13.1773 8.72866 13.1914C8.72754 13.1917 8.72591 13.194 8.72475 13.1943C8.70699 13.2037 8.6888 13.2142 8.67104 13.2236C8.64966 13.2342 8.62818 13.2453 8.60561 13.2559C8.58301 13.2665 8.55985 13.2757 8.53725 13.2852C8.51832 13.2922 8.49954 13.2996 8.48061 13.3066C8.45444 13.3161 8.42768 13.325 8.40151 13.332C8.38744 13.3355 8.37457 13.3393 8.36049 13.3428C8.35573 13.344 8.3506 13.3455 8.34584 13.3467C8.31987 13.3525 8.29388 13.3596 8.26674 13.3643C8.25605 13.3654 8.24618 13.368 8.23549 13.3691C8.22479 13.3703 8.21397 13.3719 8.20327 13.3731C8.17949 13.3766 8.15575 13.3805 8.13198 13.3828C8.1202 13.384 8.10955 13.3848 8.0978 13.3848C8.08125 13.3859 8.06551 13.3877 8.04897 13.3877C8.03232 13.3889 8.01386 13.3887 7.99721 13.3887C7.97958 13.3887 7.96309 13.3877 7.94545 13.3877C7.92887 13.3877 7.9132 13.3848 7.89663 13.3848C7.88473 13.3836 7.87336 13.3828 7.86147 13.3828C7.83783 13.3805 7.81382 13.3766 7.79018 13.3731C7.77961 13.3719 7.76852 13.3715 7.75795 13.3691C7.74749 13.368 7.73815 13.3666 7.72768 13.3643C7.70151 13.3595 7.67377 13.3538 7.6476 13.3467C7.643 13.3455 7.63853 13.3439 7.63393 13.3428C7.61966 13.3392 7.60621 13.3356 7.59194 13.332C7.56476 13.3238 7.5398 13.316 7.51381 13.3066C7.49478 13.2996 7.47523 13.2922 7.4562 13.2852C7.43374 13.2758 7.41127 13.2664 7.38881 13.2559C7.36747 13.2465 7.34473 13.2354 7.32338 13.2236C7.30559 13.2142 7.28746 13.2049 7.26967 13.1943C7.26848 13.1943 7.26598 13.1914 7.26479 13.1914C7.24235 13.1785 7.21984 13.1646 7.19741 13.1494C7.18432 13.14 7.16948 13.1305 7.15639 13.1211C7.16472 13.127 7.17248 13.1328 7.1808 13.1387C7.17843 13.1363 7.17202 13.1328 7.17202 13.1328L3.39467 10.5098C2.74165 10.0581 2.58342 9.1668 3.04018 8.52052C3.49572 7.87329 4.39428 7.71637 5.04604 8.16895L6.5558 9.21778V11.9736C6.55224 11.5196 6.76683 11.0717 7.17006 10.791L7.97963 10.2275L6.55776 9.24122V7.41309C6.55798 6.62321 7.20247 5.98453 7.99916 5.98438ZM6.81362 12.7822C6.82075 12.7917 6.82992 12.8011 6.83705 12.8106C6.82758 12.7988 6.81801 12.7871 6.80971 12.7754C6.81159 12.7774 6.81298 12.781 6.81362 12.7822ZM8.01479 10.2295L8.82338 10.791C9.22636 11.0717 9.44023 11.5197 9.43666 11.9736V9.24415L8.01479 10.2295ZM0.208149 6.57716C0.573344 6.0607 1.29364 5.93485 1.81459 6.29688C2.33531 6.65901 2.46191 7.37224 2.09682 7.88868C1.73166 8.40516 1.01232 8.53191 0.491352 8.16993C-0.0296399 7.80787 -0.157021 7.09371 0.208149 6.57716ZM14.1857 6.29688C14.7078 5.93491 15.4259 6.0609 15.7912 6.57716C16.1563 7.09489 16.0289 7.80787 15.508 8.16993C14.9858 8.53164 14.2676 8.4051 13.9025 7.88868C13.5375 7.37096 13.6648 6.6589 14.1857 6.29688ZM7.99623 2.55567C8.63252 2.55328 9.1507 3.06247 9.15346 3.69337C9.15613 4.3245 8.64158 4.83818 8.00502 4.84083C7.36865 4.84325 6.85047 4.33413 6.8478 3.70313C6.84513 3.072 7.35967 2.55832 7.99623 2.55567Z" fill="url(#paint0_linear_275_3623)"/>
</g>
<defs>
<linearGradient id="paint0_linear_275_3623" x1="0.193052" y1="6.9049" x2="13.0134" y2="10.0113" gradientUnits="userSpaceOnUse">
<stop stop-color="#0091FF"/>
<stop offset="0.682692" stop-color="#0055FF"/>
<stop offset="1" stop-color="#004DFF"/>
</linearGradient>
<clipPath id="clip0_275_3623">
<rect width="16" height="16" fill="white"/>
</clipPath>
</defs>
</svg>
