<svg width="32" height="32" viewBox="0 0 32 32" fill="none" xmlns="http://www.w3.org/2000/svg">
<g clip-path="url(#clip0_275_3622)">
<path fill-rule="evenodd" clip-rule="evenodd" d="M15.9993 11.9688C17.593 11.969 18.8821 13.2493 18.8821 14.8272V18.4278L21.8928 16.3379C23.1964 15.4348 24.992 15.7486 25.9055 17.041H25.9104C26.8215 18.3336 26.5051 20.1148 25.2014 21.0205L17.6457 26.2656C17.641 26.2703 17.6339 26.2727 17.6291 26.2774C17.6458 26.2656 17.6604 26.254 17.677 26.2422C17.6508 26.2611 17.6245 26.28 17.5959 26.2988C17.5508 26.3295 17.5034 26.3555 17.4582 26.3838C17.4559 26.3838 17.4509 26.3887 17.4485 26.3887C17.413 26.4075 17.3775 26.4285 17.342 26.4473C17.2994 26.4684 17.2562 26.4896 17.2112 26.5108C17.166 26.532 17.1206 26.5515 17.0754 26.5703C17.0375 26.5845 16.9992 26.5982 16.9612 26.6123C16.9089 26.6312 16.8563 26.6499 16.8039 26.6641C16.7755 26.6711 16.7494 26.6785 16.7209 26.6856C16.7114 26.6879 16.7012 26.69 16.6916 26.6924C16.6394 26.7042 16.587 26.7191 16.5325 26.7285C16.5112 26.7309 16.4922 26.735 16.4709 26.7373C16.4495 26.7397 16.4279 26.7447 16.4065 26.7471C16.359 26.7542 16.3114 26.7609 16.2639 26.7656C16.2401 26.768 16.2184 26.7705 16.1946 26.7705C16.1614 26.7729 16.1301 26.7754 16.0969 26.7754C16.0638 26.7777 16.0284 26.7774 15.9954 26.7774C15.9598 26.7774 15.9264 26.7754 15.8909 26.7754C15.8577 26.7754 15.8264 26.7706 15.7932 26.7705C15.7694 26.7682 15.7477 26.7656 15.7239 26.7656C15.6764 26.7609 15.6288 26.7542 15.5813 26.7471C15.5599 26.7447 15.5383 26.742 15.5168 26.7373C15.4956 26.735 15.4766 26.7332 15.4553 26.7285C15.4031 26.7191 15.3484 26.7065 15.2961 26.6924C15.2866 26.69 15.2764 26.6879 15.2668 26.6856C15.2384 26.6785 15.2123 26.6711 15.1838 26.6641C15.1292 26.6476 15.0789 26.6312 15.0266 26.6123C14.9886 26.5982 14.9503 26.5845 14.9123 26.5703C14.8672 26.5515 14.8218 26.532 14.7766 26.5108C14.7339 26.4919 14.6884 26.4708 14.6457 26.4473C14.6103 26.4285 14.5748 26.4098 14.5393 26.3887C14.5369 26.3887 14.5319 26.3838 14.5295 26.3838C14.4843 26.3579 14.439 26.3295 14.3938 26.2988C14.3677 26.28 14.3389 26.261 14.3127 26.2422C14.3293 26.254 14.344 26.2656 14.3606 26.2774C14.3557 26.2726 14.344 26.2656 14.344 26.2656L6.78832 21.0205C5.48234 20.1172 5.16598 18.3336 6.07934 17.041C6.99048 15.7461 8.78934 15.4322 10.093 16.3379L13.1116 18.4346V23.9473C13.1044 23.0392 13.5326 22.1424 14.3391 21.5811L15.9592 20.4551L13.1155 18.4834V14.8272C13.1155 13.2469 14.4054 11.9688 15.9993 11.9688ZM13.6282 25.5655C13.6424 25.5842 13.6589 25.6033 13.6731 25.6221C13.6541 25.5985 13.6351 25.5744 13.6184 25.5508C13.6232 25.5555 13.6282 25.5655 13.6282 25.5655ZM18.3049 25.6221C18.3191 25.6033 18.3356 25.5842 18.3498 25.5655C18.3546 25.5607 18.3572 25.5555 18.3596 25.5508C18.3406 25.5744 18.3216 25.5985 18.3049 25.6221ZM16.0315 20.46L17.6457 21.5811C18.4522 22.1424 18.8804 23.0392 18.8733 23.9473V18.4893L16.0315 20.46ZM0.417231 13.1553C1.14755 12.1222 2.58619 11.8697 3.62817 12.5938C4.67004 13.3178 4.92464 14.7443 4.19457 15.7774C3.46423 16.8105 2.02464 17.063 0.98266 16.3389C-0.0590128 15.6147 -0.313023 14.1883 0.417231 13.1553ZM28.3713 12.5938C29.4157 11.8697 30.8529 12.1222 31.5832 13.1553C32.3132 14.1906 32.0585 15.6148 31.0168 16.3389C29.9725 17.063 28.5353 16.8105 27.8049 15.7774C27.075 14.742 27.3295 13.3178 28.3713 12.5938ZM15.9914 5.11135C17.2644 5.10606 18.3013 6.12464 18.3069 7.38674C18.3122 8.64899 17.2841 9.67732 16.011 9.68264C14.7379 9.68792 13.7019 8.66854 13.6965 7.40627C13.6912 6.14405 14.7184 5.11672 15.9914 5.11135Z" fill="url(#paint0_linear_275_3622)"/>
</g>
<defs>
<linearGradient id="paint0_linear_275_3622" x1="0.386833" y1="13.8098" x2="26.0273" y2="20.0225" gradientUnits="userSpaceOnUse">
<stop stop-color="#0091FF"/>
<stop offset="0.682692" stop-color="#0055FF"/>
<stop offset="1" stop-color="#004DFF"/>
</linearGradient>
<clipPath id="clip0_275_3622">
<rect width="32" height="32" fill="white"/>
</clipPath>
</defs>
</svg>
