<svg width="256" height="256" viewBox="0 0 256 256" fill="none" xmlns="http://www.w3.org/2000/svg">
<g clip-path="url(#clip0_275_3621)">
<path fill-rule="evenodd" clip-rule="evenodd" d="M127.991 95.7458C140.742 95.7459 151.058 105.992 151.058 118.616V147.43L175.14 130.704C185.569 123.477 199.938 125.987 207.246 136.328H207.284C214.573 146.668 212.041 160.914 201.612 168.16L141.168 210.126C141.13 210.163 141.073 210.183 141.035 210.22C141.168 210.126 141.282 210.031 141.415 209.937C141.206 210.088 140.997 210.239 140.769 210.39C140.407 210.636 140.026 210.843 139.665 211.069C139.646 211.069 139.608 211.107 139.589 211.107C139.303 211.258 139.018 211.428 138.732 211.579C138.39 211.749 138.047 211.919 137.686 212.089C137.324 212.258 136.962 212.409 136.601 212.56C136.296 212.674 135.991 212.786 135.686 212.899C135.268 213.05 134.849 213.202 134.431 213.315C134.202 213.372 133.993 213.428 133.765 213.484C133.688 213.503 133.612 213.522 133.536 213.541C133.118 213.635 132.699 213.748 132.262 213.824C132.09 213.843 131.938 213.881 131.767 213.9C131.595 213.919 131.424 213.956 131.253 213.975C130.872 214.032 130.491 214.088 130.11 214.126C129.92 214.145 129.749 214.164 129.559 214.164C129.292 214.183 129.045 214.202 128.778 214.202C128.512 214.221 128.226 214.22 127.96 214.22C127.675 214.22 127.408 214.202 127.123 214.202C126.857 214.202 126.609 214.164 126.343 214.164C126.152 214.145 125.98 214.126 125.79 214.126C125.41 214.088 125.029 214.032 124.648 213.975C124.477 213.956 124.306 213.938 124.135 213.9C123.963 213.881 123.811 213.862 123.64 213.824C123.221 213.749 122.784 213.654 122.365 213.541C122.289 213.522 122.213 213.503 122.137 213.484C121.908 213.428 121.699 213.372 121.471 213.315C121.033 213.183 120.633 213.05 120.214 212.899C119.91 212.786 119.605 212.673 119.301 212.56C118.939 212.409 118.577 212.258 118.216 212.089C117.873 211.938 117.511 211.768 117.169 211.579C116.883 211.428 116.598 211.277 116.312 211.107C116.293 211.107 116.255 211.069 116.236 211.069C115.875 210.862 115.513 210.636 115.151 210.39C114.942 210.239 114.714 210.088 114.505 209.937C114.638 210.032 114.753 210.126 114.886 210.22C114.848 210.183 114.752 210.126 114.752 210.126L54.3076 168.16C43.8595 160.933 41.328 146.668 48.6357 136.328C55.9247 125.969 70.3128 123.458 80.7421 130.704L104.894 147.479V191.577C104.837 184.312 108.262 177.142 114.714 172.651L127.676 163.645L104.925 147.864V118.616C104.925 105.973 115.24 95.7458 127.991 95.7458ZM109.023 204.521C109.138 204.672 109.271 204.823 109.385 204.974C109.309 204.88 109.233 204.785 109.159 204.691L109 204.479C109.013 204.501 109.022 204.518 109.023 204.521ZM146.878 204.408C146.726 204.597 146.573 204.786 146.439 204.974C146.554 204.823 146.688 204.672 146.802 204.521C146.84 204.484 146.859 204.446 146.878 204.408ZM128.256 163.68L141.168 172.651C147.62 177.142 151.045 184.312 150.988 191.577V147.912L128.256 163.68ZM3.33394 105.24C9.17662 96.9753 20.6905 94.956 29.0263 100.749C37.3622 106.542 39.3983 117.958 33.5556 126.222C27.7129 134.487 16.1991 136.507 7.86324 130.714C-0.472592 124.921 -2.50877 113.505 3.33394 105.24ZM226.97 100.749C235.325 94.9559 246.819 96.9753 252.662 105.24C258.505 113.524 256.469 124.921 248.133 130.714C239.778 136.506 228.283 134.487 222.44 126.222C216.598 117.939 218.634 106.542 226.97 100.749ZM127.933 40.8894C138.117 40.8471 146.408 48.9985 146.451 59.0964C146.494 69.1946 138.272 77.4154 128.087 77.4577C117.902 77.4999 109.611 69.3478 109.568 59.2497C109.526 49.1517 117.748 40.9317 127.933 40.8894Z" fill="url(#paint0_linear_275_3621)"/>
</g>
<defs>
<linearGradient id="paint0_linear_275_3621" x1="3.09177" y1="110.478" x2="208.218" y2="160.18" gradientUnits="userSpaceOnUse">
<stop stop-color="#0091FF"/>
<stop offset="0.682692" stop-color="#0055FF"/>
<stop offset="1" stop-color="#004DFF"/>
</linearGradient>
<clipPath id="clip0_275_3621">
<rect width="256" height="256" fill="white"/>
</clipPath>
</defs>
</svg>
