<svg width="64" height="64" viewBox="0 0 64 64" fill="none" xmlns="http://www.w3.org/2000/svg">
<g clip-path="url(#clip0_275_3620)">
<path fill-rule="evenodd" clip-rule="evenodd" d="M31.998 23.9365C35.1856 23.9367 37.7646 26.4985 37.7646 29.6543V36.8574L43.7851 32.6758C46.3924 30.8693 49.9845 31.497 51.8114 34.082H51.8212C53.6433 36.6671 53.0104 40.2286 50.4032 42.04L35.2919 52.5312C35.2825 52.5406 35.2682 52.5454 35.2587 52.5547C35.2918 52.5312 35.3203 52.5078 35.3534 52.4844C35.3012 52.522 35.2492 52.56 35.1923 52.5976C35.1019 52.659 35.0063 52.7109 34.9159 52.7676C34.9112 52.7678 34.9022 52.7759 34.8974 52.7763C34.826 52.8141 34.7539 52.8568 34.6825 52.8945C34.597 52.9369 34.5111 52.98 34.4208 53.0224C34.3307 53.0647 34.2404 53.102 34.1503 53.1396C34.0742 53.1679 33.9979 53.1963 33.9218 53.2246C33.8171 53.2623 33.712 53.3008 33.6073 53.3291C33.5505 53.3432 33.4982 53.357 33.4413 53.3711C33.4223 53.3758 33.4027 53.381 33.3837 53.3857C33.2792 53.4093 33.1746 53.4372 33.0653 53.456C33.0225 53.4608 32.9841 53.4699 32.9413 53.4746C32.8986 53.4793 32.8561 53.4894 32.8134 53.4941C32.7182 53.5083 32.6224 53.5218 32.5273 53.5312C32.4798 53.5359 32.437 53.541 32.3896 53.541C32.323 53.5457 32.2608 53.5508 32.1942 53.5508C32.1278 53.5554 32.0566 53.5547 31.9901 53.5547C31.9188 53.5547 31.8516 53.5508 31.7802 53.5508C31.7138 53.5507 31.6522 53.541 31.5858 53.541C31.5383 53.5363 31.4948 53.5312 31.4472 53.5312C31.3522 53.5218 31.257 53.5082 31.162 53.4941C31.1193 53.4894 31.0768 53.484 31.0341 53.4746C30.9913 53.4699 30.9528 53.4655 30.9101 53.456C30.8054 53.4372 30.6954 53.414 30.5907 53.3857C30.5718 53.381 30.553 53.3758 30.5341 53.3711C30.477 53.3569 30.4242 53.3432 30.3671 53.3291C30.2578 53.2961 30.1582 53.2623 30.0536 53.2246C29.9775 53.1963 29.9012 53.1679 29.8251 53.1396C29.7348 53.1019 29.644 53.0649 29.5536 53.0224C29.468 52.9847 29.3775 52.9417 29.2919 52.8945C29.2207 52.8568 29.1493 52.8187 29.078 52.7763C29.0734 52.7762 29.0643 52.768 29.0595 52.7676C28.9691 52.7157 28.8784 52.6589 28.788 52.5976C28.7357 52.5599 28.6782 52.5221 28.6259 52.4844C28.6592 52.5079 28.6883 52.5311 28.7216 52.5547C28.7125 52.5457 28.6906 52.5326 28.6884 52.5312L13.5771 42.04C10.965 40.2333 10.3321 36.6671 12.1591 34.082C13.9813 31.4923 17.5781 30.8645 20.1855 32.6758L26.2235 36.8701V47.8945C26.2093 46.0783 27.0657 44.2858 28.6786 43.1631L31.9189 40.9111L26.2314 36.9658V29.6543C26.2314 26.4936 28.8102 23.9365 31.998 23.9365ZM27.2558 51.1308C27.2842 51.1684 27.3181 51.2055 27.3466 51.2431C27.3087 51.1962 27.2704 51.1495 27.2372 51.1025C27.2466 51.1121 27.2558 51.1308 27.2558 51.1308ZM36.6103 51.2431C36.6386 51.2057 36.6717 51.1683 36.7001 51.1308C36.7095 51.1215 36.7149 51.1119 36.7196 51.1025C36.6817 51.1495 36.6435 51.1962 36.6103 51.2431ZM32.0634 40.9199L35.2919 43.1631C36.9048 44.2858 37.7613 46.0784 37.747 47.8945V36.9775L32.0634 40.9199ZM0.833895 26.3095C2.29469 24.2438 5.17295 23.7394 7.25675 25.1875C9.34052 26.6358 9.84921 29.4895 8.38858 31.5556C6.92789 33.6217 4.04963 34.1268 1.96573 32.6787C-0.118236 31.2305 -0.626785 28.3758 0.833895 26.3095ZM56.7421 25.1875C58.8308 23.7393 61.7052 24.2434 63.1659 26.3095C64.6266 28.3805 64.1171 31.2305 62.0331 32.6787C59.9444 34.1267 57.0709 33.6217 55.6103 31.5556C54.1497 29.4848 54.6584 26.6358 56.7421 25.1875ZM31.9833 10.2226C34.5294 10.2122 36.6025 12.2499 36.6132 14.7744C36.6238 17.2988 34.5676 19.3537 32.0214 19.3642C29.4753 19.3747 27.4022 17.3369 27.3915 14.8125C27.3809 12.2879 29.4371 10.2332 31.9833 10.2226Z" fill="url(#paint0_linear_275_3620)"/>
</g>
<defs>
<linearGradient id="paint0_linear_275_3620" x1="0.773187" y1="27.6195" x2="52.0547" y2="40.0452" gradientUnits="userSpaceOnUse">
<stop stop-color="#0091FF"/>
<stop offset="0.682692" stop-color="#0055FF"/>
<stop offset="1" stop-color="#004DFF"/>
</linearGradient>
<clipPath id="clip0_275_3620">
<rect width="64" height="64" fill="white"/>
</clipPath>
</defs>
</svg>
