<svg width="128" height="128" viewBox="0 0 128 128" fill="none" xmlns="http://www.w3.org/2000/svg">
<g clip-path="url(#clip0_275_3619)">
<path fill-rule="evenodd" clip-rule="evenodd" d="M63.9959 47.873C70.3713 47.8731 75.5288 52.996 75.5291 59.3076V73.7148L87.5701 65.3525C92.7848 61.739 99.9697 62.9938 103.624 68.164H103.642C107.287 73.3342 106.021 80.4571 100.806 84.08L70.5847 105.063C70.5657 105.082 70.5364 105.091 70.5173 105.11C70.5839 105.063 70.6413 105.016 70.7078 104.969C70.6032 105.044 70.4986 105.12 70.3845 105.195C70.2038 105.318 70.0135 105.422 69.8328 105.535C69.8233 105.535 69.8043 105.553 69.7947 105.554C69.6519 105.629 69.5087 105.714 69.366 105.789C69.1947 105.874 69.0233 105.959 68.8425 106.044C68.6618 106.129 68.4813 106.205 68.3005 106.28C68.1483 106.337 67.9957 106.394 67.8435 106.45C67.6343 106.526 67.4248 106.601 67.2156 106.657C67.1014 106.685 66.9967 106.714 66.8826 106.742C66.8445 106.752 66.8064 106.761 66.7683 106.77C66.559 106.818 66.3494 106.874 66.1306 106.912C66.0451 106.922 65.9691 106.941 65.8836 106.95C65.798 106.96 65.7123 106.978 65.6267 106.987C65.4364 107.016 65.2457 107.045 65.0554 107.063C64.9605 107.073 64.875 107.082 64.78 107.082C64.6468 107.091 64.5226 107.101 64.3894 107.101C64.2562 107.11 64.1134 107.11 63.9802 107.11C63.8375 107.11 63.704 107.101 63.5613 107.101C63.4282 107.101 63.3047 107.082 63.1716 107.082C63.0765 107.073 62.9904 107.063 62.8953 107.063C62.7051 107.045 62.5151 107.016 62.325 106.987C62.2395 106.978 62.1536 106.969 62.0681 106.95C61.9825 106.941 61.9057 106.931 61.8201 106.912C61.6108 106.874 61.3917 106.827 61.1824 106.77C61.1444 106.761 61.1061 106.752 61.0681 106.742C60.9541 106.714 60.8492 106.685 60.7351 106.657C60.5164 106.591 60.3164 106.526 60.1072 106.45C59.9551 106.394 59.8032 106.337 59.6511 106.28C59.4703 106.205 59.289 106.129 59.1082 106.044C58.9369 105.968 58.756 105.883 58.5847 105.789C58.4422 105.714 58.2995 105.638 58.157 105.554C58.1476 105.554 58.1285 105.536 58.1189 105.535C57.9381 105.431 57.7567 105.318 57.5759 105.195C57.4713 105.12 57.3573 105.044 57.2527 104.969C57.3193 105.016 57.3765 105.063 57.4431 105.11C57.4252 105.093 57.3817 105.066 57.3767 105.063L27.1541 84.08C21.93 80.4666 20.6643 73.3342 24.3181 68.164C27.9627 62.9844 35.1572 61.7296 40.3718 65.3525L52.447 73.7392V95.789C52.4185 92.1567 54.1313 88.5706 57.3572 86.3252L63.8367 81.8222L52.4627 73.9316V59.3076C52.4629 52.9865 57.6204 47.873 63.9959 47.873ZM54.5125 102.261C54.5695 102.336 54.636 102.412 54.6931 102.487C54.617 102.393 54.541 102.298 54.4744 102.204C54.4934 102.223 54.5125 102.261 54.5125 102.261ZM73.2205 102.487C73.2775 102.412 73.3441 102.336 73.4011 102.261C73.4201 102.242 73.4297 102.223 73.4392 102.204C73.3631 102.298 73.2871 102.393 73.2205 102.487ZM64.1287 81.8398L70.5847 86.3252C73.8106 88.5706 75.5234 92.1567 75.4949 95.789V73.955L64.1287 81.8398ZM1.66675 52.6201C4.58804 48.4878 10.3455 47.4778 14.5134 50.374C18.6814 53.2704 19.6994 58.9789 16.7781 63.1113C13.8567 67.2436 8.10028 68.2528 3.93238 65.3564C-0.235452 62.46 -1.25434 56.7525 1.66675 52.6201ZM113.485 50.374C117.663 47.4776 123.41 48.4877 126.332 52.6201C129.253 56.7618 128.235 62.4599 124.067 65.3564C119.89 68.2529 114.142 67.2437 111.22 63.1113C108.299 58.9694 109.317 53.2704 113.485 50.374ZM63.9666 20.4443C69.059 20.4232 73.204 24.4997 73.2253 29.5488C73.2465 34.5977 69.1361 38.7073 64.0437 38.7285C58.9512 38.7496 54.8053 34.674 54.7839 29.625C54.7626 24.5759 58.8741 20.4654 63.9666 20.4443Z" fill="url(#paint0_linear_275_3619)"/>
</g>
<defs>
<linearGradient id="paint0_linear_275_3619" x1="1.54613" y1="55.2388" x2="104.11" y2="80.0897" gradientUnits="userSpaceOnUse">
<stop stop-color="#0091FF"/>
<stop offset="0.682692" stop-color="#0055FF"/>
<stop offset="1" stop-color="#004DFF"/>
</linearGradient>
<clipPath id="clip0_275_3619">
<rect width="128" height="128" fill="white"/>
</clipPath>
</defs>
</svg>
