<svg width="87" height="24" viewBox="0 0 87 24" fill="none" xmlns="http://www.w3.org/2000/svg">
<path d="M5.36898 11.7687L10.8734 5.89346L10.9583 5.80255V5.29078H7.4858L7.39066 5.39516L3.06189 10.1661V5.28741H0.000488281V18.654H3.06189V13.4925L7.89014 18.5564L7.98527 18.654H11.434V18.0648L11.3457 17.9739L5.36559 11.7687H5.36898Z" fill="#17171A"/>
<path d="M21.0828 5.30865H20.7634V12.9178C20.7634 14.9481 19.7338 16.113 17.9432 16.113C16.0337 16.113 14.9396 14.9481 14.9396 12.9178V5.30865H11.8986V12.9178C11.8986 16.5676 14.2634 18.9278 17.9262 18.9278C21.589 18.9278 23.8078 16.6248 23.8078 12.9178V5.30865H21.0828Z" fill="#17171A"/>
<path d="M31.4385 10.2409C29.5799 10.022 28.8528 9.66177 28.8528 8.95472C28.8528 8.09279 29.7294 7.57765 31.1973 7.57765C32.502 7.57765 33.5995 8.23083 33.9698 8.84361L34.1227 9.09613L34.3878 8.96145L36.3143 7.97832L36.5929 7.83691L36.4536 7.55745C35.577 5.78646 33.732 4.85046 31.1191 4.85046C28.4858 4.87067 25.8288 6.12315 25.8288 8.87728C25.8288 11.9984 28.5232 12.7357 31.1599 13.0489C32.3185 13.1734 33.8543 13.4664 33.8543 14.6077C33.8543 16.0858 31.836 16.2003 31.2176 16.2003C29.6003 16.2003 28.3601 15.5202 27.898 14.3788L27.7655 14.0556L27.4529 14.2138L25.4346 15.2508L25.1764 15.3821L25.2851 15.6481C26.2025 17.8871 28.1325 18.9746 31.1803 18.9746C34.7072 18.9746 36.8953 17.2979 36.8953 14.601C36.8953 11.3452 34.2722 10.5776 31.4385 10.2308V10.2409Z" fill="#17171A"/>
<path d="M38.9249 5.28741H38.6055V5.6039V18.3375V18.654H38.9249H41.3305H41.6499V18.3375V5.6039V5.28741H41.3305H38.9249Z" fill="#17171A"/>
<path d="M43.8995 5.28741H43.5801V5.6039V7.78565V8.10214H43.8995H47.6574V18.3375V18.654H47.9768H50.3994H50.7188V18.3375V8.10214H54.4734H54.7928V7.78565V5.6039V5.28741H54.4734H43.8995Z" fill="#17171A"/>
<path d="M67.2521 5.30865H67.089L66.9939 5.43996L63.2326 10.5644L59.4712 5.43996L59.3761 5.30865H56.104V18.6752H59.1654V10.0661L62.6821 14.8336L62.7773 14.9616H63.5757L63.6709 14.8336L67.2827 10.0627V18.6719H70.3441V5.30865H67.2521Z" fill="#17171A"/>
<path d="M78.0592 10.4156C76.2006 10.1968 75.4735 9.83651 75.4735 9.12946C75.4735 8.26753 76.3501 7.75240 77.818 7.75240C79.1227 7.75240 80.2202 8.40558 80.5906 9.01835L80.7435 9.27087L81.0085 9.13619L82.935 8.15306L83.2137 8.01165L83.0744 7.7322C82.1977 5.96121 80.3527 5.02521 77.7398 5.02521C75.1066 5.04541 72.4495 6.2979 72.4495 9.05202C72.4495 12.1731 75.1439 12.9105 77.7806 13.2236C78.9393 13.3482 80.4751 13.6411 80.4751 14.7825C80.4751 16.2606 78.4568 16.375 77.8384 16.375C76.221 16.375 74.9808 15.6949 74.5187 14.5535L74.3862 14.2303L74.0736 14.3886L72.0554 15.4256L71.7971 15.5569L71.9059 15.8229C72.8233 18.0618 74.7532 19.1494 77.801 19.1494C81.3279 19.1494 83.5161 17.4726 83.5161 14.7758C83.5161 11.52 80.893 10.7523 78.0592 10.4055V10.4156Z" fill="#17171A"/>
</svg>
