<svg width="132" height="35" viewBox="0 0 132 35" fill="none" xmlns="http://www.w3.org/2000/svg">
<path d="M7.82905 17.1628L15.8563 8.59475L15.9802 8.46218V7.71585H10.9161L10.7773 7.86806L4.46455 14.8256V7.71094H0V27.2039H4.46455V19.6768L11.5057 27.0615L11.6445 27.2039H16.6739V26.3446L16.5451 26.2121L7.8241 17.1628H7.82905Z" fill="#17171A"/>
<path d="M30.7451 7.74207H30.2793V18.8388C30.2793 21.7996 28.7779 23.4985 26.1666 23.4985C23.3818 23.4985 21.7863 21.7996 21.7863 18.8388V7.74207H17.3514V18.8388C17.3514 24.1613 20.8002 27.6033 26.1418 27.6033C31.4834 27.6033 34.7191 24.2448 34.7191 18.8388V7.74207H30.7451Z" fill="#17171A"/>
<path d="M45.8472 14.9347C43.1368 14.6155 42.0764 14.0902 42.0764 13.059C42.0764 11.8021 43.3548 11.0508 45.4954 11.0508C47.3982 11.0508 48.9987 12.0034 49.5388 12.897L49.7617 13.2653L50.1482 13.0689L52.9578 11.6351L53.3641 11.4289L53.1609 11.0214C51.8825 8.43867 49.1919 7.07367 45.3814 7.07367C41.5412 7.10313 37.6663 8.92967 37.6663 12.9461C37.6663 17.4977 41.5957 18.573 45.4409 19.0297C47.1306 19.2113 49.3703 19.6385 49.3703 21.303C49.3703 23.4586 46.427 23.6255 45.5251 23.6255C43.1665 23.6255 41.3579 22.6337 40.684 20.9691L40.4907 20.4978L40.0349 20.7286L37.0916 22.2409L36.715 22.4323L36.8735 22.8202C38.2114 26.0854 41.0259 27.6714 45.4706 27.6714C50.614 27.6714 53.8051 25.2262 53.8051 21.2932C53.8051 16.5452 49.9798 15.4257 45.8472 14.92V14.9347Z" fill="#17171A"/>
<path d="M56.7653 7.71094H56.2996V8.17248V26.7423V27.2039H56.7653H60.2736H60.7393V26.7423V8.17248V7.71094H60.2736H56.7653Z" fill="#17171A"/>
<path d="M64.0199 7.71094H63.5541V8.17248V11.3542V11.8158H64.0199H69.5002V26.7423V27.2039H69.966H73.499H73.9647V26.7423V11.8158H79.4401H79.9059V11.3542V8.17248V7.71094H79.4401H64.0199Z" fill="#17171A"/>
<path d="M98.0758 7.74207H97.838L97.6992 7.93356L92.2139 15.4067L86.7286 7.93356L86.5899 7.74207H81.8181V27.235H86.2827V14.68L91.4112 21.6326L91.5499 21.8192H92.7144L92.8531 21.6326L98.1204 14.6751V27.2301H102.585V7.74207H98.0758Z" fill="#17171A"/>
<path d="M113.836 15.1896C111.126 14.8704 110.065 14.345 110.065 13.3139C110.065 12.0569 111.344 11.3057 113.484 11.3057C115.387 11.3057 116.988 12.2583 117.528 13.1519L117.751 13.5201L118.137 13.3237L120.947 11.89L121.353 11.6838L121.15 11.2762C119.872 8.69355 117.181 7.32855 113.37 7.32855C109.53 7.35801 105.655 9.18456 105.655 13.201C105.655 17.7526 109.585 18.8279 113.43 19.2846C115.12 19.4662 117.359 19.8934 117.359 21.5579C117.359 23.7134 114.416 23.8804 113.514 23.8804C111.156 23.8804 109.347 22.8885 108.673 21.224L108.48 20.7527L108.024 20.9834L105.081 22.4957L104.704 22.6872L104.863 23.0751C106.2 26.3403 109.015 27.9263 113.46 27.9263C118.603 27.9263 121.794 25.4811 121.794 21.5481C121.794 16.8001 117.969 15.6806 113.836 15.1748V15.1896Z" fill="#17171A"/>
</svg>
