<svg width="110" height="20" viewBox="0 0 110 20" fill="none" xmlns="http://www.w3.org/2000/svg">
<path fill-rule="evenodd" clip-rule="evenodd" d="M14.1708 6.47811C15.5825 6.47815 16.7245 7.61279 16.7245 9.01033V12.1998L19.3915 10.3492C20.5462 9.54921 22.1371 9.8265 22.9462 10.9713H22.9501C23.7571 12.116 23.4768 13.6934 22.3222 14.4957L15.6298 19.1422C15.6257 19.1462 15.6193 19.1479 15.6152 19.1519C15.6298 19.1415 15.6425 19.1311 15.6571 19.1207C15.634 19.1374 15.6111 19.1548 15.5859 19.1715C15.5459 19.1986 15.5038 19.2216 15.4638 19.2467C15.4617 19.2467 15.4571 19.2506 15.455 19.2506C15.4235 19.2672 15.3918 19.2857 15.3603 19.3023C15.3223 19.3211 15.2841 19.3402 15.2441 19.359C15.2041 19.3777 15.1639 19.395 15.1239 19.4117C15.0904 19.4242 15.0569 19.4364 15.0234 19.4488C14.977 19.4655 14.9301 19.4822 14.8837 19.4947C14.8586 19.5009 14.8356 19.507 14.8105 19.5133C14.8021 19.5153 14.7935 19.518 14.7851 19.5201C14.7387 19.5305 14.6919 19.543 14.6435 19.5513C14.6247 19.5534 14.6076 19.5581 14.5888 19.5601C14.5699 19.5622 14.551 19.5659 14.5321 19.5679C14.4902 19.5742 14.4482 19.5804 14.4062 19.5846C14.3851 19.5866 14.3657 19.5894 14.3446 19.5894C14.3153 19.5915 14.288 19.5933 14.2587 19.5933C14.2293 19.5954 14.1973 19.5953 14.1679 19.5953C14.1364 19.5953 14.1066 19.5933 14.0751 19.5933C14.0456 19.5933 14.0177 19.5894 13.9882 19.5894C13.9673 19.5874 13.9485 19.5846 13.9277 19.5846C13.8855 19.5804 13.8428 19.5742 13.8007 19.5679C13.7819 19.5659 13.7629 19.5643 13.7441 19.5601C13.7251 19.5581 13.7083 19.5555 13.6894 19.5513C13.643 19.543 13.5941 19.5326 13.5478 19.5201C13.5395 19.518 13.5307 19.5153 13.5224 19.5133C13.4973 19.507 13.4742 19.5009 13.4491 19.4947C13.4008 19.4801 13.3567 19.4655 13.3105 19.4488C13.2768 19.4363 13.2426 19.4242 13.2089 19.4117C13.1689 19.395 13.1288 19.3778 13.0888 19.359C13.0509 19.3423 13.0105 19.3232 12.9726 19.3023C12.9411 19.2857 12.9093 19.2693 12.8779 19.2506C12.8758 19.2503 12.8722 19.2471 12.87 19.2467C12.8301 19.2238 12.7898 19.1985 12.7499 19.1715C12.7267 19.1548 12.7008 19.1374 12.6777 19.1207C12.6923 19.131 12.7051 19.1416 12.7196 19.1519C12.7152 19.1478 12.705 19.1422 12.705 19.1422L6.01359 14.4957C4.8568 13.6956 4.57654 12.1161 5.38566 10.9713C6.19275 9.82462 7.78577 9.54706 8.94035 10.3492L11.6142 12.2056V17.0885C11.6079 16.2842 11.9868 15.49 12.7011 14.9928L14.1357 13.9957L11.6171 12.2486V9.01033C11.6171 7.61068 12.7591 6.47811 14.1708 6.47811ZM16.2138 18.5719C16.2264 18.5551 16.2412 18.5378 16.2538 18.5211C16.2577 18.5172 16.2597 18.5133 16.2616 18.5094C16.2449 18.5301 16.2284 18.5511 16.2138 18.5719ZM14.2001 13.9986L15.6298 14.9928C16.3441 15.49 16.723 16.2842 16.7167 17.0885V12.2535L14.2001 13.9986ZM0.369063 7.52986C1.01596 6.61494 2.29092 6.39147 3.21379 7.03279C4.13669 7.67414 4.36164 8.93809 3.71477 9.85311C3.06789 10.7679 1.79385 10.9913 0.871016 10.3502C-0.051888 9.70883 -0.277813 8.44488 0.369063 7.52986ZM25.1298 7.03279C26.0548 6.39157 27.3277 6.6149 27.9745 7.52986C28.6214 8.44697 28.3955 9.70883 27.4726 10.3502C26.5476 10.9915 25.2747 10.7681 24.6279 9.85311C23.9811 8.93601 24.207 7.6741 25.1298 7.03279ZM14.164 0.404863C15.2915 0.400353 16.2091 1.3026 16.2138 2.42049C16.2184 3.5384 15.3082 4.44803 14.1806 4.45271C13.053 4.4573 12.1355 3.55502 12.1308 2.43709C12.1262 1.31918 13.0364 0.409546 14.164 0.404863Z" fill="url(#paint0_linear_275_3502)"/>
<path d="M38.7384 9.806L43.349 4.88256L43.4201 4.80638V4.37752H40.5115L40.4318 4.46498L36.806 8.46299V4.37469H34.2417V15.5759H36.806V11.2506L40.8502 15.4941L40.9298 15.5759H43.8186V15.0821L43.7446 15.0059L38.7356 9.806H38.7384Z" fill="#18181B"/>
<path d="M51.9012 4.39349H51.6336V10.77C51.6336 12.4713 50.7713 13.4476 49.2714 13.4476C47.672 13.4476 46.7556 12.4713 46.7556 10.77V4.39349H44.2084V10.77C44.2084 13.8284 46.1892 15.8063 49.2572 15.8063C52.3252 15.8063 54.1837 13.8764 54.1837 10.77V4.39349H51.9012Z" fill="#18181B"/>
<path d="M60.5749 8.52582C59.0182 8.34243 58.4091 8.04053 58.4091 7.44802C58.4091 6.72573 59.1434 6.29405 60.3729 6.29405C61.4657 6.29405 62.385 6.84141 62.6952 7.35492L62.8233 7.56653L63.0453 7.45367L64.659 6.6298L64.8923 6.5113L64.7757 6.27712C64.0414 4.79303 62.496 4.00867 60.3074 4.00867C58.1017 4.0256 55.8761 5.07518 55.8761 7.38313C55.8761 9.99862 58.133 10.6165 60.3416 10.8789C61.312 10.9833 62.5985 11.2288 62.5985 12.1853C62.5985 13.4239 60.9079 13.5198 60.3899 13.5198C59.0352 13.5198 57.9964 12.9499 57.6094 11.9934L57.4984 11.7225L57.2365 11.8551L55.546 12.7242L55.3297 12.8342L55.4208 13.0571C56.1892 14.9334 57.8058 15.8447 60.3586 15.8447C63.3128 15.8447 65.1456 14.4396 65.1456 12.1796C65.1456 9.45126 62.9485 8.80797 60.5749 8.51736V8.52582Z" fill="#18181B"/>
<path d="M66.8448 4.37469H66.5773V4.63991V15.3107V15.5759H66.8448H68.8598H69.1273V15.3107V4.63991V4.37469H68.8598H66.8448Z" fill="#18181B"/>
<path d="M71.0111 4.37469H70.7435V4.63991V6.46822V6.73343H71.0111H74.1588V15.3107V15.5759H74.4263H76.4555H76.723V15.3107V6.73343H79.8679H80.1354V6.46822V4.63991V4.37469H79.8679H71.0111Z" fill="#18181B"/>
<path d="M90.5717 4.39349H90.4351L90.3554 4.50353L87.2048 8.79779L84.0543 4.50353L83.9746 4.39349H81.2339V15.5947H83.7982V8.38021L86.7438 12.3754L86.8235 12.4826H87.4923L87.572 12.3754L90.5973 8.37739V15.5919H93.1616V4.39349H90.5717Z" fill="#18181B"/>
<path d="M99.6245 8.67255C98.0677 8.48915 97.4587 8.18726 97.4587 7.59475C97.4587 6.87246 98.1929 6.44078 99.4224 6.44078C100.515 6.44078 101.435 6.98814 101.745 7.50164L101.873 7.71325L102.095 7.6004L103.709 6.77653L103.942 6.65803L103.825 6.42385C103.091 4.93976 101.546 4.1554 99.357 4.1554C97.1513 4.17232 94.9257 5.22191 94.9257 7.52986C94.9257 10.1454 97.1826 10.7633 99.3911 11.0256C100.362 11.13 101.648 11.3755 101.648 12.332C101.648 13.5706 99.9575 13.6665 99.4395 13.6665C98.0848 13.6665 97.046 13.0966 96.6589 12.1401L96.5479 11.8693L96.2861 12.0019L94.5956 12.8709L94.3793 12.9809L94.4703 13.2038C95.2388 15.0801 96.8553 15.9914 99.4082 15.9914C102.362 15.9914 104.195 14.5863 104.195 12.3263C104.195 9.59799 101.998 8.9547 99.6245 8.66409V8.67255Z" fill="#18181B"/>
<defs>
<linearGradient id="paint0_linear_275_3502" x1="0.342421" y1="8.10936" x2="23.0534" y2="13.6123" gradientUnits="userSpaceOnUse">
<stop stop-color="#0091FF"/>
<stop offset="0.682692" stop-color="#0055FF"/>
<stop offset="1" stop-color="#004DFF"/>
</linearGradient>
</defs>
</svg>
