<svg width="132" height="24" viewBox="0 0 132 24" fill="none" xmlns="http://www.w3.org/2000/svg">
<path fill-rule="evenodd" clip-rule="evenodd" d="M17.0047 7.77392C18.6987 7.77396 20.0691 9.13589 20.0691 10.813V14.6401L23.2693 12.4184C24.6549 11.4585 26.564 11.7919 27.5349 13.1655H27.5398C28.5082 14.5393 28.1715 16.4324 26.7859 17.395L18.7556 22.9702C18.7506 22.9752 18.7431 22.9779 18.7381 22.9829C18.7558 22.9704 18.7711 22.9573 18.7888 22.9448C18.7611 22.9648 18.7332 22.9853 18.7029 23.0054C18.655 23.0378 18.6043 23.0652 18.5564 23.0952C18.5539 23.0952 18.5482 23.1011 18.5457 23.1011C18.5079 23.1211 18.4702 23.1436 18.4324 23.1636C18.3869 23.1861 18.3408 23.2084 18.2927 23.2309C18.2449 23.2534 18.1971 23.2735 18.1492 23.2934C18.1089 23.3084 18.0684 23.3234 18.0281 23.3384C17.9726 23.3584 17.9166 23.379 17.8611 23.394C17.8308 23.4016 17.8026 23.409 17.7722 23.4165C17.7621 23.419 17.7521 23.4218 17.742 23.4243C17.6863 23.4368 17.6302 23.4514 17.572 23.4614C17.5495 23.4639 17.5292 23.4687 17.5066 23.4712C17.4839 23.4737 17.461 23.4794 17.4383 23.4819C17.3878 23.4894 17.3373 23.4964 17.2869 23.5015C17.2617 23.504 17.2388 23.5063 17.2136 23.5063C17.1784 23.5088 17.1454 23.5122 17.1101 23.5122C17.0747 23.5147 17.0361 23.5141 17.0008 23.5141C16.9629 23.5141 16.9273 23.5122 16.8894 23.5122C16.8542 23.5122 16.8212 23.5063 16.7859 23.5063C16.7607 23.5038 16.7379 23.5015 16.7127 23.5015C16.6622 23.4964 16.6117 23.4894 16.5613 23.4819C16.5385 23.4794 16.5157 23.4762 16.4929 23.4712C16.4703 23.4687 16.4501 23.4664 16.4275 23.4614C16.3719 23.4514 16.3132 23.4393 16.2576 23.4243C16.2475 23.4218 16.2374 23.419 16.2273 23.4165C16.197 23.409 16.1688 23.4016 16.1384 23.394C16.0804 23.3765 16.027 23.3584 15.9715 23.3384C15.9312 23.3234 15.8906 23.3084 15.8504 23.2934C15.8025 23.2735 15.7547 23.2534 15.7068 23.2309C15.6613 23.2109 15.6127 23.1886 15.5672 23.1636C15.5294 23.1436 15.4917 23.1235 15.4539 23.1011C15.4513 23.1011 15.4457 23.0952 15.4431 23.0952C15.3953 23.0677 15.3474 23.0378 15.2996 23.0054C15.2718 22.9853 15.2415 22.9649 15.2136 22.9448C15.2313 22.9573 15.2467 22.9704 15.2644 22.9829C15.2594 22.9779 15.2459 22.9702 15.2459 22.9702L7.2156 17.395C5.82749 16.4349 5.49173 14.5393 6.46267 13.1655C7.43117 11.7895 9.3428 11.4559 10.7283 12.4184L13.9363 14.647V20.5063C13.9287 19.5413 14.384 18.5883 15.241 17.9917L16.9636 16.7944L13.9402 14.6977V10.813C13.9402 9.13335 15.3106 7.77392 17.0047 7.77392ZM14.4851 22.2261C14.5002 22.246 14.5179 22.2657 14.533 22.2856C14.5128 22.2607 14.493 22.2354 14.4754 22.2104C14.4804 22.2155 14.4851 22.2261 14.4851 22.2261ZM19.4558 22.2856C19.471 22.2656 19.4895 22.2461 19.5047 22.2261C19.5097 22.2211 19.5119 22.2154 19.5144 22.2104C19.4942 22.2355 19.4735 22.2606 19.4558 22.2856ZM17.0388 16.7993L18.7556 17.9917C19.6128 18.5883 20.0679 19.5412 20.0603 20.5063V14.7036L17.0388 16.7993ZM0.443135 9.03563C1.21949 7.93799 2.74889 7.67042 3.85622 8.43993C4.96358 9.20958 5.234 10.7257 4.45778 11.8237C3.68152 12.9216 2.15214 13.19 1.0447 12.4204C-0.0627878 11.6508 -0.333116 10.1337 0.443135 9.03563ZM30.155 8.43993C31.265 7.67036 32.7928 7.93779 33.5691 9.03563C34.3453 10.1361 34.0748 11.6507 32.9675 12.4204C31.8575 13.19 30.3297 12.9217 29.5535 11.8237C28.7774 10.7234 29.048 9.20963 30.155 8.43993ZM16.9968 0.485829C18.3498 0.480453 19.4511 1.56333 19.4568 2.90477C19.4623 4.24604 18.3702 5.3374 17.0174 5.34325C15.6642 5.34887 14.5621 4.2659 14.5564 2.92431C14.551 1.58291 15.6438 0.491448 16.9968 0.485829Z" fill="url(#paint0_linear_275_3416)"/>
<path d="M46.4864 11.7671L52.0191 5.85901L52.1044 5.76759V5.25296H48.6141L48.5184 5.35792L44.1675 10.1555V5.24957H41.0903V18.691H44.1675V13.5006L49.0205 18.5928L49.1161 18.691H52.5826V18.0985L52.4938 18.0071L46.483 11.7671H46.4864Z" fill="#18181B"/>
<path d="M62.2818 5.27219H61.9607V12.924C61.9607 14.9656 60.9259 16.1371 59.1261 16.1371C57.2067 16.1371 56.107 14.9656 56.107 12.924V5.27219H53.0504V12.924C53.0504 16.5941 55.4274 18.9675 59.109 18.9675C62.7906 18.9675 65.0208 16.6517 65.0208 12.924V5.27219H62.2818Z" fill="#18181B"/>
<path d="M72.6901 10.231C70.822 10.0109 70.0911 9.64866 70.0911 8.93765C70.0911 8.0709 70.9723 7.55288 72.4477 7.55288C73.7591 7.55288 74.8622 8.20972 75.2345 8.82592L75.3882 9.07985L75.6545 8.94442L77.591 7.95579L77.871 7.81358L77.731 7.53257C76.8499 5.75166 74.9954 4.81042 72.3691 4.81042C69.7223 4.83074 67.0516 6.09024 67.0516 8.85978C67.0516 11.9984 69.7599 12.7399 72.4101 13.0547C73.5747 13.18 75.1184 13.4746 75.1184 14.6223C75.1184 16.1087 73.0897 16.2238 72.4681 16.2238C70.8425 16.2238 69.5959 15.5399 69.1315 14.3921L68.9983 14.0671L68.6841 14.2262L66.6554 15.269L66.3959 15.401L66.5052 15.6685C67.4273 17.92 69.3671 19.0136 72.4306 19.0136C75.9756 19.0136 78.175 17.3275 78.175 14.6156C78.175 11.3415 75.5384 10.5696 72.6901 10.2209V10.231Z" fill="#18181B"/>
<path d="M80.214 5.24957H79.8929V5.56783V18.3727V18.691H80.214H82.632H82.953V18.3727V5.56783V5.24957H82.632H80.214Z" fill="#18181B"/>
<path d="M85.2136 5.24957H84.8926V5.56783V7.7618V8.08006H85.2136H88.9908V18.3727V18.691H89.3119H91.7469H92.068V18.3727V8.08006H95.8418H96.1628V7.7618V5.56783V5.24957H95.8418H85.2136Z" fill="#18181B"/>
<path d="M108.686 5.27219H108.522L108.427 5.40423L104.646 10.5573L100.865 5.40423L100.77 5.27219H97.4807V18.7136H100.558V10.0562L104.093 14.8505L104.188 14.9791H104.991L105.086 14.8505L108.717 10.0529V18.7102H111.794V5.27219H108.686Z" fill="#18181B"/>
<path d="M119.55 10.407C117.681 10.1869 116.951 9.82463 116.951 9.11362C116.951 8.24687 117.832 7.72885 119.307 7.72885C120.618 7.72885 121.722 8.38568 122.094 9.00189L122.248 9.25582L122.514 9.12039L124.45 8.13175L124.73 7.98955L124.59 7.70853C123.709 5.92763 121.855 4.98639 119.228 4.98639C116.582 5.0067 113.911 6.2662 113.911 9.03575C113.911 12.1743 116.619 12.9158 119.269 13.2307C120.434 13.356 121.978 13.6505 121.978 14.7983C121.978 16.2846 119.949 16.3998 119.328 16.3998C117.702 16.3998 116.455 15.7158 115.991 14.5681L115.858 14.243L115.543 14.4022L113.515 15.445L113.255 15.577L113.365 15.8445C114.287 18.096 116.226 19.1896 119.29 19.1896C122.835 19.1896 125.034 17.5035 125.034 14.7915C125.034 11.5175 122.398 10.7455 119.55 10.3968V10.407Z" fill="#18181B"/>
<defs>
<linearGradient id="paint0_linear_275_3416" x1="0.410906" y1="9.73123" x2="27.6641" y2="16.3348" gradientUnits="userSpaceOnUse">
<stop stop-color="#0091FF"/>
<stop offset="0.682692" stop-color="#0055FF"/>
<stop offset="1" stop-color="#004DFF"/>
</linearGradient>
</defs>
</svg>
