<svg width="31" height="31" viewBox="0 0 31 31" fill="none" xmlns="http://www.w3.org/2000/svg">
<path d="M13.768 3C14.5378 1.66667 16.4622 1.66667 17.232 3L27.1913 20.25C27.9611 21.5833 26.9989 23.25 25.4593 23.25H5.54071C4.0011 23.25 3.03886 21.5833 3.80866 20.25L13.768 3Z" fill="#DCE5FE"/>
<path d="M17.232 28C16.4622 29.3333 14.5377 29.3333 13.7679 28L3.80866 10.75C3.03886 9.41666 4.00111 7.75 5.54071 7.75L25.4593 7.75C26.9989 7.75 27.9611 9.41667 27.1913 10.75L17.232 28Z" fill="#98B1FE"/>
<path d="M24.4482 15.499L19.9746 23.25H11.0254L6.55176 15.499L11.0254 7.75H19.9746L24.4482 15.499Z" fill="#BACCFE"/>
</svg>
